<svg width="1109" height="700" viewBox="0 0 1109 700" fill="none" xmlns="http://www.w3.org/2000/svg">
<rect width="1109" height="700" fill="#1C0127"/>
<circle cx="24" cy="530" r="10" fill="#7674DE"/>
<circle cx="232" cy="132" r="10" fill="#DC9E41"/>
<circle cx="232" cy="132" r="10" fill="#DC9E41"/>
<circle cx="979" cy="182" r="10" fill="#DC9E41"/>
<circle cx="979" cy="182" r="10" fill="#F5530D"/>
<circle cx="1068" cy="641" r="10" fill="#DC9E41"/>
<circle cx="1068" cy="641" r="10" fill="#C633FA"/>
<circle cx="847" cy="510" r="10" fill="#DC9E41"/>
<circle cx="847" cy="510" r="10" fill="#DC4141"/>
<circle cx="580.5" cy="82.5" r="7.5" fill="#DC9E41"/>
<circle cx="580.5" cy="82.5" r="7.5" fill="#36BA92"/>
<rect x="129" y="156" width="63" height="53" rx="10" fill="#3E1D4D"/>
<rect x="43" y="358" width="63" height="53" rx="10" fill="#3E1D4D"/>
<rect x="969" y="513" width="63" height="53" rx="10" fill="#3E1D4D"/>
<rect x="1032" y="83" width="46" height="36" rx="10" fill="#3E1D4D"/>
<rect x="169" y="563" width="46" height="36" rx="10" fill="#3E1D4D"/>
<rect x="242" y="285" width="46" height="36" rx="10" fill="#3E1D4D"/>
<rect x="837" y="334" width="63" height="53" rx="10" fill="#3E1D4D"/>
</svg>
